<mxfile host="Electron" modified="2024-08-13T13:28:15.570Z" agent="Mozilla/5.0 (X11; Linux x86_64) AppleWebKit/537.36 (KHTML, like Gecko) draw.io/24.6.4 Chrome/124.0.6367.207 Electron/30.0.6 Safari/537.36" etag="mkjI57uD6vTTzoL5fDY5" version="24.6.4" type="device">
  <diagram name="PÃ¡gina-1" id="PlSop4T7X0Y4DtvX1gsL">
    <mxGraphModel dx="2261" dy="839" grid="1" gridSize="10" guides="1" tooltips="1" connect="1" arrows="1" fold="1" page="1" pageScale="1" pageWidth="827" pageHeight="1169" math="0" shadow="0">
      <root>
        <mxCell id="0" />
        <mxCell id="1" parent="0" />
        <mxCell id="LwgJCSn-_H81lv3WdGul-4" value="API GATEWAY" style="rounded=0;whiteSpace=wrap;html=1;" parent="1" vertex="1">
          <mxGeometry x="110" y="165" width="70" height="340" as="geometry" />
        </mxCell>
        <mxCell id="LwgJCSn-_H81lv3WdGul-6" style="edgeStyle=orthogonalEdgeStyle;rounded=0;orthogonalLoop=1;jettySize=auto;html=1;exitX=0.5;exitY=0.5;exitDx=0;exitDy=0;exitPerimeter=0;entryX=0;entryY=0.5;entryDx=0;entryDy=0;" parent="1" source="LwgJCSn-_H81lv3WdGul-5" target="LwgJCSn-_H81lv3WdGul-4" edge="1">
          <mxGeometry relative="1" as="geometry" />
        </mxCell>
        <mxCell id="LwgJCSn-_H81lv3WdGul-5" value="User" style="shape=umlActor;verticalLabelPosition=bottom;verticalAlign=top;html=1;outlineConnect=0;" parent="1" vertex="1">
          <mxGeometry x="-30" y="305" width="30" height="60" as="geometry" />
        </mxCell>
        <mxCell id="LwgJCSn-_H81lv3WdGul-8" style="rounded=0;orthogonalLoop=1;jettySize=auto;html=1;exitX=0;exitY=0.5;exitDx=0;exitDy=0;entryX=1;entryY=0.5;entryDx=0;entryDy=0;startArrow=none;startFill=0;endArrow=none;endFill=0;" parent="1" source="LwgJCSn-_H81lv3WdGul-7" target="LwgJCSn-_H81lv3WdGul-4" edge="1">
          <mxGeometry relative="1" as="geometry" />
        </mxCell>
        <mxCell id="LwgJCSn-_H81lv3WdGul-14" style="rounded=0;orthogonalLoop=1;jettySize=auto;html=1;exitX=1;exitY=0.5;exitDx=0;exitDy=0;entryX=0;entryY=0.5;entryDx=0;entryDy=0;startArrow=classic;startFill=1;" parent="1" source="LwgJCSn-_H81lv3WdGul-7" target="LwgJCSn-_H81lv3WdGul-13" edge="1">
          <mxGeometry relative="1" as="geometry" />
        </mxCell>
        <mxCell id="LwgJCSn-_H81lv3WdGul-26" style="rounded=0;orthogonalLoop=1;jettySize=auto;html=1;entryX=0;entryY=0.5;entryDx=0;entryDy=0;startArrow=classic;startFill=1;exitX=1;exitY=0.75;exitDx=0;exitDy=0;" parent="1" source="LwgJCSn-_H81lv3WdGul-7" target="LwgJCSn-_H81lv3WdGul-25" edge="1">
          <mxGeometry relative="1" as="geometry">
            <mxPoint x="290" y="335" as="sourcePoint" />
          </mxGeometry>
        </mxCell>
        <mxCell id="LwgJCSn-_H81lv3WdGul-7" value="AUTH Module" style="rounded=0;whiteSpace=wrap;html=1;" parent="1" vertex="1">
          <mxGeometry x="220" y="165" width="70" height="340" as="geometry" />
        </mxCell>
        <mxCell id="LwgJCSn-_H81lv3WdGul-12" style="edgeStyle=orthogonalEdgeStyle;rounded=0;orthogonalLoop=1;jettySize=auto;html=1;exitX=0.5;exitY=1;exitDx=0;exitDy=0;entryX=0.636;entryY=0.996;entryDx=0;entryDy=0;entryPerimeter=0;startArrow=classic;startFill=1;" parent="1" source="LwgJCSn-_H81lv3WdGul-7" target="LwgJCSn-_H81lv3WdGul-15" edge="1">
          <mxGeometry relative="1" as="geometry">
            <mxPoint x="680" y="572.5" as="targetPoint" />
          </mxGeometry>
        </mxCell>
        <mxCell id="Sm0701WaWxGs32YTYWdD-1" value="Authenticate user" style="edgeLabel;html=1;align=center;verticalAlign=middle;resizable=0;points=[];" vertex="1" connectable="0" parent="LwgJCSn-_H81lv3WdGul-12">
          <mxGeometry x="-0.1263" relative="1" as="geometry">
            <mxPoint as="offset" />
          </mxGeometry>
        </mxCell>
        <mxCell id="LwgJCSn-_H81lv3WdGul-21" style="rounded=0;orthogonalLoop=1;jettySize=auto;html=1;exitX=1;exitY=0.75;exitDx=0;exitDy=0;entryX=0;entryY=0.5;entryDx=0;entryDy=0;startArrow=classic;startFill=1;" parent="1" source="LwgJCSn-_H81lv3WdGul-13" target="LwgJCSn-_H81lv3WdGul-19" edge="1">
          <mxGeometry relative="1" as="geometry" />
        </mxCell>
        <mxCell id="LwgJCSn-_H81lv3WdGul-22" value="Check if user has any debts" style="edgeLabel;html=1;align=center;verticalAlign=middle;resizable=0;points=[];" parent="LwgJCSn-_H81lv3WdGul-21" vertex="1" connectable="0">
          <mxGeometry y="1" relative="1" as="geometry">
            <mxPoint as="offset" />
          </mxGeometry>
        </mxCell>
        <mxCell id="LwgJCSn-_H81lv3WdGul-28" style="edgeStyle=orthogonalEdgeStyle;rounded=0;orthogonalLoop=1;jettySize=auto;html=1;exitX=1;exitY=0.25;exitDx=0;exitDy=0;entryX=0;entryY=0.5;entryDx=0;entryDy=0;startArrow=classic;startFill=1;" parent="1" source="LwgJCSn-_H81lv3WdGul-13" target="LwgJCSn-_H81lv3WdGul-27" edge="1">
          <mxGeometry relative="1" as="geometry" />
        </mxCell>
        <mxCell id="LwgJCSn-_H81lv3WdGul-29" value="Chech if user has enough money" style="edgeLabel;html=1;align=center;verticalAlign=middle;resizable=0;points=[];" parent="LwgJCSn-_H81lv3WdGul-28" vertex="1" connectable="0">
          <mxGeometry x="0.1556" y="-2" relative="1" as="geometry">
            <mxPoint as="offset" />
          </mxGeometry>
        </mxCell>
        <mxCell id="LwgJCSn-_H81lv3WdGul-13" value="PAYMENT Module" style="rounded=0;whiteSpace=wrap;html=1;" parent="1" vertex="1">
          <mxGeometry x="400" y="305" width="120" height="60" as="geometry" />
        </mxCell>
        <mxCell id="LwgJCSn-_H81lv3WdGul-15" value="DB" style="image;aspect=fixed;html=1;points=[];align=center;fontSize=12;image=img/lib/azure2/databases/Azure_Database_PostgreSQL_Server.svg;" parent="1" vertex="1">
          <mxGeometry x="1150" y="270" width="60" height="80" as="geometry" />
        </mxCell>
        <mxCell id="LwgJCSn-_H81lv3WdGul-18" value="SERVICE Module" style="rounded=0;whiteSpace=wrap;html=1;" parent="1" vertex="1">
          <mxGeometry x="780" y="410" width="100" height="60" as="geometry" />
        </mxCell>
        <mxCell id="LwgJCSn-_H81lv3WdGul-19" value="DEBTS Module" style="rounded=0;whiteSpace=wrap;html=1;" parent="1" vertex="1">
          <mxGeometry x="780" y="330" width="100" height="60" as="geometry" />
        </mxCell>
        <mxCell id="LwgJCSn-_H81lv3WdGul-25" value="REPORT Module" style="rounded=0;whiteSpace=wrap;html=1;" parent="1" vertex="1">
          <mxGeometry x="400" y="390" width="120" height="60" as="geometry" />
        </mxCell>
        <mxCell id="LwgJCSn-_H81lv3WdGul-27" value="USER Module" style="rounded=0;whiteSpace=wrap;html=1;" parent="1" vertex="1">
          <mxGeometry x="780" y="230" width="100" height="60" as="geometry" />
        </mxCell>
        <mxCell id="LwgJCSn-_H81lv3WdGul-30" style="edgeStyle=orthogonalEdgeStyle;rounded=0;orthogonalLoop=1;jettySize=auto;html=1;exitX=1;exitY=0.5;exitDx=0;exitDy=0;entryX=0.027;entryY=0.836;entryDx=0;entryDy=0;entryPerimeter=0;" parent="1" source="LwgJCSn-_H81lv3WdGul-19" target="LwgJCSn-_H81lv3WdGul-15" edge="1">
          <mxGeometry relative="1" as="geometry" />
        </mxCell>
        <mxCell id="LwgJCSn-_H81lv3WdGul-31" style="edgeStyle=orthogonalEdgeStyle;rounded=0;orthogonalLoop=1;jettySize=auto;html=1;exitX=1;exitY=0.5;exitDx=0;exitDy=0;entryX=-0.026;entryY=0.549;entryDx=0;entryDy=0;entryPerimeter=0;" parent="1" source="LwgJCSn-_H81lv3WdGul-27" target="LwgJCSn-_H81lv3WdGul-15" edge="1">
          <mxGeometry relative="1" as="geometry" />
        </mxCell>
        <mxCell id="LwgJCSn-_H81lv3WdGul-32" style="edgeStyle=orthogonalEdgeStyle;rounded=0;orthogonalLoop=1;jettySize=auto;html=1;exitX=0.5;exitY=0;exitDx=0;exitDy=0;entryX=0.486;entryY=-0.004;entryDx=0;entryDy=0;entryPerimeter=0;" parent="1" source="LwgJCSn-_H81lv3WdGul-13" target="LwgJCSn-_H81lv3WdGul-15" edge="1">
          <mxGeometry relative="1" as="geometry">
            <Array as="points">
              <mxPoint x="460" y="120" />
              <mxPoint x="1179" y="120" />
            </Array>
          </mxGeometry>
        </mxCell>
        <mxCell id="LwgJCSn-_H81lv3WdGul-33" value="Make payment" style="edgeLabel;html=1;align=center;verticalAlign=middle;resizable=0;points=[];" parent="LwgJCSn-_H81lv3WdGul-32" vertex="1" connectable="0">
          <mxGeometry x="-0.1916" y="1" relative="1" as="geometry">
            <mxPoint as="offset" />
          </mxGeometry>
        </mxCell>
      </root>
    </mxGraphModel>
  </diagram>
</mxfile>
